<svg xmlns="http://www.w3.org/2000/svg" viewBox="0 0 256 256" role="img" aria-label="Roder">
  <path fill="#ff4d00" d="M128 20c4.6 0 9 1.2 13 3.5l60 34.7c8 4.6 13 13.2 13 22.5v31.2c0 8.2-4.4 15.8-11.6 19.9l-38.7 22.3c-7.1 4.1-16 4.1-23.1 0L128 146.9l-12.6 7.2c-7.1 4.1-16 4.1-23.1 0l-38.7-22.3C46.4 127.7 42 120.1 42 111.9V80.7c0-9.3 5-17.9 13-22.5l60-34.7c4-2.3 8.4-3.5 13-3.5Z"/>
  <path fill="#ff4d00" d="M42.2 116.4c3.9-2.3 8.4-3.5 12.9-3.5 4.6 0 9.1 1.2 13.1 3.5l38.8 22.4c7.1 4.1 11.5 11.7 11.5 19.9v14.4l12.6 7.3c7.1 4.1 11.5 11.7 11.5 19.9v44.6c0 8.3-4.4 15.9-11.6 20l-27 15.6c-8.1 4.6-18 4.6-26 0l-60-34.7c-8-4.6-13-13.2-13-22.5v-69.4c0-9.3 5-17.9 13-22.5l24.2-14Z" transform="translate(16 -28)"/>
  <path fill="#111316" d="M137.5 138.8c0-8.2 4.4-15.8 11.5-19.9l38.8-22.4c4-2.3 8.5-3.5 13.1-3.5 4.5 0 9 1.2 12.9 3.5l24.2 14c8 4.6 13 13.2 13 22.5v69.4c0 9.3-5 17.9-13 22.5l-60 34.7c-8 4.6-17.9 4.6-26 0l-27-15.6c-7.2-4.1-11.6-11.7-11.6-20v-44.6c0-8.2 4.4-15.8 11.5-19.9l12.6-7.3v-14.4Z" transform="translate(-11 -7)"/>
</svg>
